<svg xmlns="http://www.w3.org/2000/svg" width="200" height="200" viewBox="0 0 200 200" version="1.1"><path d="M 94.500 37.509 L 83.500 39.950 76.500 41.941 L 69.500 43.931 65 45.243 L 60.500 46.556 58.250 47.813 L 56 49.070 56 51.035 L 56 53 55 53 L 54 53 54 54.465 L 54 55.930 55.934 56.965 L 57.869 58 61.275 58 L 64.682 58 69.591 56.511 L 74.500 55.022 74.750 55.011 L 75 55 74.976 58.250 L 74.952 61.500 73.979 65.500 L 73.006 69.500 71.480 76.666 L 69.954 83.832 70.952 88.284 L 71.950 92.737 72.976 95.436 L 74.002 98.134 75.990 97.503 L 77.979 96.872 80.212 98.436 L 82.445 100 85 100 L 87.555 100 89.709 98.491 L 91.863 96.982 93.487 91.397 L 95.111 85.812 95.626 77.656 L 96.142 69.500 94.321 66 L 92.500 62.500 88.714 61.565 L 84.928 60.630 85.599 59.065 L 86.270 57.500 87.503 54.114 L 88.736 50.727 90.389 49.802 L 92.042 48.877 93.771 48.546 L 95.500 48.214 104.500 47.579 L 113.500 46.945 115.797 44.362 L 118.093 41.780 117.734 40.701 L 117.374 39.622 114.937 37.863 L 112.500 36.104 109 35.586 L 105.500 35.068 94.500 37.509 M 129.667 55.667 L 129 56.333 129 66.862 L 129 77.391 126.262 80.248 L 123.524 83.106 125.271 86.149 L 127.017 89.191 124.508 92.172 L 122 95.153 122 97.108 L 122 99.063 123.508 99.641 L 125.015 100.220 127.473 98.610 L 129.930 97 130.521 97 L 131.113 97 129.307 100.133 L 127.500 103.266 124.250 104.646 L 121 106.027 121 108.545 L 121 111.063 122.502 111.639 L 124.004 112.216 127.894 110.659 L 131.783 109.103 133.392 110.880 L 135 112.657 135 115.272 L 135 117.887 132.777 119.443 L 130.555 121 127.859 121 L 125.164 121 123.582 120.393 L 122 119.786 122 118.893 L 122 118 125.891 118 L 129.781 118 130.190 114.500 L 130.598 111 130.382 111 L 130.166 111 125.366 113.057 L 120.567 115.115 119.302 116.164 L 118.037 117.214 119.463 119.251 L 120.890 121.288 123.695 123.137 L 126.500 124.987 130.500 124.990 L 134.500 124.993 137.661 123.065 L 140.821 121.138 141.462 119.118 L 142.104 117.098 141.033 113.122 L 139.962 109.146 136.904 106.573 L 133.847 104 132.855 104 L 131.864 104 133.731 101.250 L 135.598 98.500 136.772 95.762 L 137.946 93.024 137.396 91.589 L 136.845 90.155 135.485 89.633 L 134.125 89.111 136.302 83.959 L 138.478 78.808 135.739 76.452 L 133 74.096 133 69.548 L 133 65 133.455 65 L 133.909 65 136.399 67.490 L 138.889 69.980 140.346 69.421 L 141.803 68.862 142.336 66.824 L 142.869 64.785 141.921 62.291 L 140.972 59.797 139.236 60.512 L 137.500 61.227 135.750 61.730 L 134 62.233 134 59.817 L 134 57.400 132.800 56.200 L 131.600 55 130.967 55 L 130.333 55 129.667 55.667 M 79.455 70.455 L 77 72.909 77 75.071 L 77 77.233 79.250 76.630 L 81.500 76.027 83.750 76.014 L 86 76 86 73.582 L 86 71.164 85.393 69.582 L 84.786 68 83.348 68 L 81.909 68 79.455 70.455 M 109.316 69.697 L 107.132 70.122 106.562 72.811 L 105.993 75.500 105.569 82.113 L 105.146 88.726 103.962 98.909 L 102.778 109.092 103.350 116.296 L 103.921 123.500 103.976 124.500 L 104.031 125.500 104.949 124.048 L 105.867 122.597 106.552 115.284 L 107.238 107.971 108.119 107.427 L 109 106.882 109.027 108.191 L 109.054 109.500 111.922 112.959 L 114.790 116.419 116.532 114.974 L 118.273 113.529 117.558 92.643 L 116.844 71.757 116.315 70.378 L 115.786 69 113.643 69.136 L 111.500 69.272 109.316 69.697 M 122.692 72.701 L 120.883 73.169 121.192 75.232 L 121.500 77.296 123.222 78.375 L 124.945 79.455 126.099 78.301 L 127.254 77.146 126.608 74.573 L 125.962 72 125.231 72.116 L 124.500 72.232 122.692 72.701 M 112.195 78.500 L 112.232 81.500 112.693 79.731 L 113.154 77.962 112.656 76.731 L 112.158 75.500 112.195 78.500 M 81.250 84.706 L 79 85.139 79 86.635 L 79 88.131 80.035 90.066 L 81.070 92 82.910 92 L 84.750 92 85.375 88.875 L 86 85.750 86 84.875 L 86 84 84.750 84.136 L 83.500 84.272 81.250 84.706 M 111.769 88.956 L 111.079 91.413 111.540 91.873 L 112 92.333 112.581 91.753 L 113.162 91.172 112.810 88.836 L 112.459 86.500 111.769 88.956 M 111.250 99.750 L 109 102 109 103.845 L 109 105.690 111.006 107.506 L 113.012 109.321 113.562 108.771 L 114.112 108.221 113.806 102.861 L 113.500 97.500 111.250 99.750 M 142.441 102.468 L 140.500 103.936 141.710 103.968 L 142.919 104 146.620 108 L 150.321 112 151.493 112 L 152.664 112 153.733 108.520 L 154.801 105.040 151.532 103.020 L 148.264 101 146.323 101 L 144.382 101 142.441 102.468" stroke="none" fill="#fbf2f3" fill-rule="evenodd"/><path d="M 96.591 23.743 L 96.292 24.042 89.897 24.611 L 83.501 25.180 77.219 28.210 L 70.936 31.240 67.718 34.764 L 64.500 38.288 63 39.946 L 61.500 41.604 61.262 43.802 L 61.024 46 62.191 46 L 63.359 46 69.430 44.086 L 75.500 42.173 83 40.127 L 90.500 38.082 98.880 36.537 L 107.259 34.993 110.971 35.992 L 114.682 36.992 116.421 38.913 L 118.159 40.834 117.134 42.749 L 116.109 44.664 114.778 45.769 L 113.447 46.874 104.474 47.544 L 95.500 48.214 93.771 48.546 L 92.042 48.877 90.389 49.802 L 88.736 50.727 87.503 54.114 L 86.270 57.500 85.599 59.065 L 84.928 60.630 88.714 61.565 L 92.500 62.500 94.321 66 L 96.142 69.500 95.626 77.656 L 95.111 85.812 93.487 91.397 L 91.863 96.982 89.709 98.491 L 87.555 100 85 100 L 82.445 100 80.212 98.436 L 77.979 96.872 75.990 97.503 L 74.002 98.134 72.976 95.436 L 71.950 92.737 70.952 88.284 L 69.954 83.832 71.480 76.666 L 73.006 69.500 73.979 65.500 L 74.952 61.500 74.976 58.143 L 75 54.786 73.371 55.411 L 71.742 56.036 67.338 57.145 L 62.933 58.254 59.015 57.729 L 55.097 57.203 53.680 59.366 L 52.262 61.529 51.537 64.832 L 50.811 68.135 49.412 70.817 L 48.012 73.500 48.006 75.527 L 48 77.555 46.346 79.916 L 44.692 82.278 45.855 84.139 L 47.017 86 46.008 86 L 45 86 45 87.571 L 45 89.143 46.458 90.600 L 47.915 92.058 47.389 93.428 L 46.864 94.798 47.948 95.468 L 49.033 96.138 48.465 97.056 L 47.898 97.974 49.789 100.004 L 51.680 102.034 53.048 104.767 L 54.416 107.500 57.754 111.725 L 61.093 115.950 62.617 117.474 L 64.140 118.997 66.820 119.658 L 69.500 120.318 76.500 125.941 L 83.500 131.564 86.500 132.955 L 89.500 134.346 90.815 134.114 L 92.130 133.882 97.101 135.534 L 102.072 137.185 103.471 136.024 L 104.870 134.863 110.685 135.338 L 116.500 135.813 120.439 136.844 L 124.377 137.875 127.439 137.340 L 130.500 136.806 133.500 135.466 L 136.500 134.126 140.302 129.560 L 144.105 124.994 145.566 121.497 L 147.027 118 148.013 118 L 149 118 149 116.200 L 149 114.400 149.960 113.440 L 150.919 112.481 146.884 108.240 L 142.850 104 141.675 103.968 L 140.500 103.936 142.441 102.468 L 144.382 101 146.323 101 L 148.264 101 151.473 102.983 L 154.682 104.967 157.032 102.465 L 159.383 99.964 159.891 97.732 L 160.399 95.500 160.423 84.500 L 160.446 73.500 158.986 68.250 L 157.527 63 156.763 63 L 156 63 156 61.952 L 156 60.903 154 56.764 L 152 52.624 152 51.699 L 152 50.774 149.250 47.318 L 146.500 43.862 140.591 37.431 L 134.683 31 133.341 31 L 132 31 132 30.206 L 132 29.413 125.750 28.123 L 119.500 26.833 117.500 26.007 L 115.500 25.181 113.500 24.428 L 111.500 23.675 104.195 23.560 L 96.890 23.444 96.591 23.743 M 129.667 55.667 L 129 56.333 129 66.862 L 129 77.391 126.262 80.248 L 123.524 83.106 125.271 86.149 L 127.017 89.191 124.508 92.172 L 122 95.153 122 97.108 L 122 99.063 123.508 99.641 L 125.015 100.220 127.473 98.610 L 129.930 97 130.521 97 L 131.113 97 129.307 100.133 L 127.500 103.266 124.250 104.646 L 121 106.027 121 108.545 L 121 111.063 122.502 111.639 L 124.004 112.216 127.894 110.659 L 131.783 109.103 133.392 110.880 L 135 112.657 135 115.272 L 135 117.887 132.777 119.443 L 130.555 121 127.859 121 L 125.164 121 123.582 120.393 L 122 119.786 122 118.893 L 122 118 125.891 118 L 129.781 118 130.190 114.500 L 130.598 111 130.382 111 L 130.166 111 125.366 113.057 L 120.567 115.115 119.302 116.164 L 118.037 117.214 119.463 119.251 L 120.890 121.288 123.695 123.137 L 126.500 124.987 130.500 124.990 L 134.500 124.993 137.661 123.065 L 140.821 121.138 141.462 119.118 L 142.104 117.098 141.033 113.122 L 139.962 109.146 136.904 106.573 L 133.847 104 132.855 104 L 131.864 104 133.731 101.250 L 135.598 98.500 136.772 95.762 L 137.946 93.024 137.396 91.589 L 136.845 90.155 135.485 89.633 L 134.125 89.111 136.302 83.959 L 138.478 78.808 135.739 76.452 L 133 74.096 133 69.548 L 133 65 133.455 65 L 133.909 65 136.399 67.490 L 138.889 69.980 140.346 69.421 L 141.803 68.862 142.336 66.824 L 142.869 64.785 141.921 62.291 L 140.972 59.797 139.236 60.512 L 137.500 61.227 135.750 61.730 L 134 62.233 134 59.817 L 134 57.400 132.800 56.200 L 131.600 55 130.967 55 L 130.333 55 129.667 55.667 M 79.455 70.455 L 77 72.909 77 75.071 L 77 77.233 79.250 76.630 L 81.500 76.027 83.750 76.014 L 86 76 86 73.582 L 86 71.164 85.393 69.582 L 84.786 68 83.348 68 L 81.909 68 79.455 70.455 M 109.316 69.697 L 107.132 70.122 106.562 72.811 L 105.993 75.500 105.569 82.113 L 105.146 88.726 103.962 98.909 L 102.778 109.092 103.350 116.296 L 103.921 123.500 103.976 124.500 L 104.031 125.500 104.949 124.048 L 105.867 122.597 106.552 115.284 L 107.238 107.971 108.119 107.427 L 109 106.882 109.027 108.191 L 109.054 109.500 111.922 112.959 L 114.790 116.419 116.532 114.974 L 118.273 113.529 117.558 92.643 L 116.844 71.757 116.315 70.378 L 115.786 69 113.643 69.136 L 111.500 69.272 109.316 69.697 M 122.692 72.701 L 120.883 73.169 121.192 75.232 L 121.500 77.296 123.222 78.375 L 124.945 79.455 126.099 78.301 L 127.254 77.146 126.608 74.573 L 125.962 72 125.231 72.116 L 124.500 72.232 122.692 72.701 M 112.195 78.500 L 112.232 81.500 112.693 79.731 L 113.154 77.962 112.656 76.731 L 112.158 75.500 112.195 78.500 M 81.250 84.706 L 79 85.139 79 86.635 L 79 88.131 80.035 90.066 L 81.070 92 82.910 92 L 84.750 92 85.375 88.875 L 86 85.750 86 84.875 L 86 84 84.750 84.136 L 83.500 84.272 81.250 84.706 M 111.769 88.956 L 111.079 91.413 111.540 91.873 L 112 92.333 112.581 91.753 L 113.162 91.172 112.810 88.836 L 112.459 86.500 111.769 88.956 M 111.250 99.750 L 109 102 109 103.845 L 109 105.690 111.006 107.506 L 113.012 109.321 113.562 108.771 L 114.112 108.221 113.806 102.861 L 113.500 97.500 111.250 99.750 M 133.933 154.581 L 132.620 156.162 133.819 158.081 L 135.017 160 134.008 160 L 133 160 133 169.500 L 133 179 136.500 179 L 140 179 140 170.059 L 140 161.118 138.997 160.498 L 137.995 159.879 138.913 158.163 L 139.830 156.448 138.866 154.724 L 137.901 153 136.573 153 L 135.245 153 133.933 154.581 M 114.667 154.667 L 114 155.333 114 157.322 L 114 159.310 112.041 157.537 L 110.081 155.763 105.706 155.270 L 101.331 154.777 98.183 156.406 L 95.034 158.034 93.517 160.967 L 92 163.901 92 168.050 L 92 172.200 95.400 175.600 L 98.800 179 103.765 179 L 108.730 179 111.365 176.927 L 114 174.855 114 176.927 L 114 179 117.500 179 L 121 179 121 172.927 L 121 166.853 122.750 167.186 L 124.500 167.519 124.800 173.260 L 125.100 179 128.050 179 L 131 179 131 171.023 L 131 163.046 128.498 161.407 L 125.996 159.768 123.498 160.245 L 121 160.723 121 157.361 L 121 154 118.167 154 L 115.333 154 114.667 154.667 M 24.736 155.598 L 24.138 156.195 28.569 163.108 L 33 170.020 33 174.510 L 33 179 36.500 179 L 40 179 40.005 174.250 L 40.010 169.500 42.474 165.500 L 44.938 161.500 44.969 168.027 L 45 174.555 46.523 176.730 L 48.047 178.905 55.023 178.882 L 62 178.860 62 169.430 L 62 160 59.048 160 L 56.095 160 55.798 166.250 L 55.500 172.500 54 172.500 L 52.500 172.500 52 166.505 L 51.500 160.510 48.500 159.984 L 45.500 159.458 46.750 158.670 L 48 157.882 48 156.441 L 48 155 44.557 155 L 41.113 155 38.673 159.093 L 36.232 163.185 33.932 159.093 L 31.632 155 28.483 155 L 25.333 155 24.736 155.598 M 64 169.569 L 64 179.127 67.250 178.813 L 70.500 178.500 70.800 172.750 L 71.100 167 72.550 167 L 74 167 74 173 L 74 179 77.500 179 L 81 179 81 173 L 81 167 82.500 167 L 84 167 84 173 L 84 179 87.500 179 L 91 179 91 171.500 L 91 164 88.901 161.901 L 86.802 159.802 83.651 160.418 L 80.500 161.033 79.500 160.985 L 78.500 160.936 71.250 160.474 L 64 160.012 64 169.569 M 111.529 161.968 L 109.748 163.936 107.940 162.968 L 106.131 162 103.766 162 L 101.400 162 100.200 163.200 L 99 164.400 99 167.045 L 99 169.690 100.829 171.345 L 102.657 173 104.138 173 L 105.618 173 107.559 171.572 L 109.500 170.143 111.750 172.246 L 114 174.349 114 167.174 L 114 160 113.655 160 L 113.310 160 111.529 161.968 M 141.584 160.750 L 141 161.333 141 170.167 L 141 179 144.500 179 L 148 179 148 172.927 L 148 166.853 149.750 167.186 L 151.500 167.519 151.800 173.260 L 152.100 179 155.050 179 L 158 179 158.030 176.250 L 158.061 173.500 159.195 175.500 L 160.329 177.500 161.415 178.235 L 162.500 178.969 169.250 178.985 L 176 179 176 172.111 L 176 165.222 174.088 162.861 L 172.177 160.500 167.138 160.500 L 162.100 160.500 161.013 161.587 L 159.926 162.674 160.853 165.114 L 161.780 167.553 159.890 169.887 L 158 172.222 158 167.634 L 158 163.046 155.750 161.622 L 153.500 160.198 147.834 160.182 L 142.168 160.166 141.584 160.750 M 165.813 166.683 L 167.125 167.208 167.729 166.604 L 168.333 166 166.417 166.079 L 164.500 166.158 165.813 166.683 M 165.800 173.200 L 167 174.400 168.200 173.200 L 169.400 172 167 172 L 164.600 172 165.800 173.200" stroke="none" fill="#e52514" fill-rule="evenodd"/></svg>