<svg xmlns="http://www.w3.org/2000/svg" width="300" height="300" viewBox="0 0 300 300" version="1.1"><path d="M 0 150 L 0 300 69.750 299.832 C 108.112 299.739, 137.813 299.487, 135.750 299.272 L 132 298.879 132 239.940 L 132 181 119 181 L 106 181 106 237 C 106 272.669, 105.646 293, 105.026 293 C 103.412 293, 89.418 287.236, 82.168 283.585 C 55.591 270.201, 30.529 244.986, 17.002 218.023 C 11.255 206.567, 6.497 193.117, 3.818 180.756 C 0.831 166.973, 0.546 135.267, 3.288 121.754 C 9.704 90.138, 27.506 58.598, 50.080 38.852 C 75.074 16.989, 104.318 4.141, 136.035 1.087 C 141.236 0.587, 116.640 0.220, 72.250 0.136 L 0 0 0 150 M 158.500 0.667 C 190.556 3.319, 217.267 13.549, 241.452 32.434 C 269.840 54.601, 290.784 90.120, 296.399 125.619 C 298.440 138.518, 298.470 161.525, 296.464 174 C 294.698 184.982, 292.025 195.200, 291.028 194.786 C 290.649 194.629, 272.645 182.575, 251.019 168 L 211.699 141.500 236.876 141 L 262.054 140.500 184.188 75.054 C 141.362 39.058, 105.789 9.430, 105.137 9.212 C 104.246 8.915, 104.019 13.015, 104.225 25.658 L 104.500 42.500 146.438 77.500 L 188.375 112.500 155.938 113 L 123.500 113.500 128.500 116.963 C 131.250 118.867, 153.238 134.055, 177.363 150.713 L 221.225 181 185.613 181 L 150 181 150 195 L 150 209 218.067 209 L 286.135 209 285.473 211.250 C 284.127 215.823, 274.664 231.948, 268.530 240.121 C 260.272 251.124, 243.632 267.046, 232.974 274.142 C 212.197 287.976, 188.083 296.775, 164 299.311 C 162.075 299.514, 191.887 299.752, 230.250 299.840 L 300 300 300 150 L 300 0 227.250 0.168 C 187.238 0.261, 156.300 0.485, 158.500 0.667 M 80 70.500 L 80 76 86 76 L 92 76 92 70.500 L 92 65 86 65 L 80 65 80 70.500 M 66 84 L 66 91 73 91 L 80 91 80 84 L 80 77 73 77 L 66 77 66 84 M 27 101 L 27 106 32 106 L 37 106 37 101 L 37 96 32 96 L 27 96 27 101 M 54 126.500 L 54 138 65.500 138 L 77 138 77 126.500 L 77 115 65.500 115 L 54 115 54 126.500 M 43 165 L 43 174 51.500 174 L 60 174 60 165 L 60 156 51.500 156 L 43 156 43 165 M 81 169.500 L 81 181 92.500 181 L 104 181 104 169.500 L 104 158 92.500 158 L 81 158 81 169.500" stroke="none" fill="#faf9fa" fill-rule="evenodd"/><path d="M 136.035 1.032 C 76.256 7.177, 26.945 46.776, 8.120 103.754 C 2.636 120.354, 1.509 128.376, 1.554 150.500 C 1.588 167.320, 1.948 172.131, 3.818 180.756 C 6.497 193.117, 11.255 206.567, 17.002 218.023 C 30.529 244.986, 55.591 270.201, 82.168 283.585 C 89.418 287.236, 103.412 293, 105.026 293 C 105.646 293, 106 272.669, 106 237 L 106 181 119 181 L 132 181 132 239.915 L 132 298.829 139.723 299.553 C 163.100 301.744, 192.293 295.859, 215.500 284.276 C 235.386 274.352, 255.257 257.806, 268.530 240.121 C 274.664 231.948, 284.127 215.823, 285.473 211.250 L 286.135 209 218.067 209 L 150 209 150 195 L 150 181 185.613 181 L 221.225 181 177.363 150.713 C 153.238 134.055, 131.250 118.867, 128.500 116.963 L 123.500 113.500 155.938 113 L 188.375 112.500 146.438 77.500 L 104.500 42.500 104.225 25.658 C 104.019 13.015, 104.246 8.915, 105.137 9.212 C 105.789 9.430, 141.362 39.058, 184.188 75.054 L 262.054 140.500 236.876 141 L 211.699 141.500 251.019 168 C 272.645 182.575, 290.649 194.629, 291.028 194.786 C 292.025 195.200, 294.698 184.982, 296.464 174 C 298.470 161.525, 298.440 138.518, 296.399 125.619 C 286.426 62.565, 234.565 11.296, 171.500 2.144 C 160.566 0.557, 145.307 0.079, 136.035 1.032 M 80 70.500 L 80 76 86 76 L 92 76 92 70.500 L 92 65 86 65 L 80 65 80 70.500 M 66 84 L 66 91 73 91 L 80 91 80 84 L 80 77 73 77 L 66 77 66 84 M 27 101 L 27 106 32 106 L 37 106 37 101 L 37 96 32 96 L 27 96 27 101 M 54 126.500 L 54 138 65.500 138 L 77 138 77 126.500 L 77 115 65.500 115 L 54 115 54 126.500 M 43 165 L 43 174 51.500 174 L 60 174 60 165 L 60 156 51.500 156 L 43 156 43 165 M 81 169.500 L 81 181 92.500 181 L 104 181 104 169.500 L 104 158 92.500 158 L 81 158 81 169.500" stroke="none" fill="#841d34" fill-rule="evenodd"/></svg>