<svg xmlns="http://www.w3.org/2000/svg" width="300" height="300" viewBox="0 0 300 300" version="1.1"><path d="M 145.728 0.722 C 147.503 0.943, 150.653 0.946, 152.728 0.730 C 154.802 0.513, 153.350 0.333, 149.500 0.328 C 145.650 0.324, 143.952 0.501, 145.728 0.722 M 131.750 1.662 C 132.438 1.940, 133.563 1.940, 134.250 1.662 C 134.938 1.385, 134.375 1.158, 133 1.158 C 131.625 1.158, 131.063 1.385, 131.750 1.662 M 119.500 21 C 120.495 22.100, 121.535 23, 121.810 23 C 122.085 23, 121.495 22.100, 120.500 21 C 119.505 19.900, 118.465 19, 118.190 19 C 117.915 19, 118.505 19.900, 119.500 21 M 246.500 37 C 247.495 38.100, 248.535 39, 248.810 39 C 249.085 39, 248.495 38.100, 247.500 37 C 246.505 35.900, 245.465 35, 245.190 35 C 244.915 35, 245.505 35.900, 246.500 37 M 44.473 44.250 L 37.500 51.500 44.750 44.527 C 51.484 38.050, 52.457 37, 51.723 37 C 51.571 37, 48.308 40.263, 44.473 44.250 M 144.500 42 C 145.495 43.100, 146.535 44, 146.810 44 C 147.085 44, 146.495 43.100, 145.500 42 C 144.505 40.900, 143.465 40, 143.190 40 C 142.915 40, 143.505 40.900, 144.500 42 M 83.768 64.725 C 85.565 64.947, 88.265 64.943, 89.768 64.715 C 91.271 64.486, 89.800 64.304, 86.500 64.310 C 83.200 64.315, 81.971 64.502, 83.768 64.725 M 72.250 76.742 C 75.963 76.934, 82.037 76.934, 85.750 76.742 C 89.463 76.549, 86.425 76.392, 79 76.392 C 71.575 76.392, 68.537 76.549, 72.250 76.742 M 207.500 95 C 208.495 96.100, 209.535 97, 209.810 97 C 210.085 97, 209.495 96.100, 208.500 95 C 207.505 93.900, 206.465 93, 206.190 93 C 205.915 93, 206.505 93.900, 207.500 95 M 31.699 95.705 L 36.899 96.101 37.295 101.301 L 37.691 106.500 37.595 101 L 37.500 95.500 32 95.405 L 26.500 95.309 31.699 95.705 M 77.212 126.217 L 77 137.934 65.750 138.253 L 54.500 138.572 65.781 138.786 C 74.334 138.948, 77.185 138.682, 77.567 137.686 C 77.844 136.963, 77.926 131.450, 77.748 125.436 L 77.425 114.500 77.212 126.217 M 251.500 132 C 252.495 133.100, 253.535 134, 253.810 134 C 254.085 134, 253.495 133.100, 252.500 132 C 251.505 130.900, 250.465 130, 250.190 130 C 249.915 130, 250.505 130.900, 251.500 132 M 297.195 134.500 C 297.215 136.150, 297.439 136.704, 297.693 135.731 C 297.947 134.758, 297.930 133.408, 297.656 132.731 C 297.382 132.054, 297.175 132.850, 297.195 134.500 M 1.195 136.500 C 1.215 138.150, 1.439 138.704, 1.693 137.731 C 1.947 136.758, 1.930 135.408, 1.656 134.731 C 1.382 134.054, 1.175 134.850, 1.195 136.500 M 298.320 150 C 298.320 153.575, 298.502 155.037, 298.723 153.250 C 298.945 151.463, 298.945 148.537, 298.723 146.750 C 298.502 144.963, 298.320 146.425, 298.320 150 M 42.360 165 C 42.360 170.225, 42.529 172.363, 42.735 169.750 C 42.941 167.137, 42.941 162.863, 42.735 160.250 C 42.529 157.637, 42.360 159.775, 42.360 165 M 80.451 170.500 L 80.500 181.500 91.752 181.551 L 103.004 181.603 92.034 181.269 L 81.065 180.935 80.733 170.218 L 80.402 159.500 80.451 170.500 M 1.158 164 C 1.158 165.375, 1.385 165.938, 1.662 165.250 C 1.940 164.563, 1.940 163.438, 1.662 162.750 C 1.385 162.063, 1.158 162.625, 1.158 164 M 297.158 166 C 297.158 167.375, 297.385 167.938, 297.662 167.250 C 297.940 166.563, 297.940 165.438, 297.662 164.750 C 297.385 164.063, 297.158 164.625, 297.158 166 M 296.158 174 C 296.158 175.375, 296.385 175.938, 296.662 175.250 C 296.940 174.563, 296.940 173.438, 296.662 172.750 C 296.385 172.063, 296.158 172.625, 296.158 174 M 185 180.981 L 149.500 181.500 149.456 194.500 L 149.413 207.500 149.736 194.750 L 150.058 182 185.529 182 C 208.510 182, 221 181.648, 221 181 C 221 180.450, 220.887 180.104, 220.750 180.231 C 220.613 180.358, 204.525 180.695, 185 180.981 M 105.459 182.250 C 105.196 182.938, 105.101 207.800, 105.249 237.500 L 105.518 291.500 105.759 236.780 L 106 182.060 118.750 181.747 L 131.500 181.435 118.719 181.217 C 109.250 181.056, 105.813 181.324, 105.459 182.250 M 132.469 240.500 C 132.469 272.950, 132.595 286.080, 132.750 269.678 C 132.904 253.277, 132.904 226.727, 132.749 210.678 C 132.595 194.630, 132.469 208.050, 132.469 240.500 M 36.500 248 C 37.495 249.100, 38.535 250, 38.810 250 C 39.085 250, 38.495 249.100, 37.500 248 C 36.505 246.900, 35.465 246, 35.190 246 C 34.915 246, 35.505 246.900, 36.500 248 M 209 287 C 208.175 287.533, 207.950 287.969, 208.500 287.969 C 209.050 287.969, 210.175 287.533, 211 287 C 211.825 286.467, 212.050 286.031, 211.500 286.031 C 210.950 286.031, 209.825 286.467, 209 287 M 138.750 299.662 C 139.438 299.940, 140.563 299.940, 141.250 299.662 C 141.938 299.385, 141.375 299.158, 140 299.158 C 138.625 299.158, 138.063 299.385, 138.750 299.662 M 158.750 299.662 C 159.438 299.940, 160.563 299.940, 161.250 299.662 C 161.938 299.385, 161.375 299.158, 160 299.158 C 158.625 299.158, 158.063 299.385, 158.750 299.662" stroke="none" fill="#bd8591" fill-rule="evenodd"/><path d="M 129.500 2.103 C 121.774 3.210, 104.979 7.227, 105.069 7.947 C 105.107 8.251, 113.499 15.475, 123.718 24 C 133.937 32.525, 151.385 47.150, 162.491 56.500 C 173.597 65.850, 200.619 88.575, 222.541 107 L 262.398 140.500 237.302 141 L 212.207 141.500 250.758 167.500 C 271.961 181.800, 289.871 193.637, 290.558 193.805 C 292.040 194.166, 295.308 180.995, 297.085 167.500 C 298.657 155.559, 297.658 132.352, 295.036 119.884 C 283.818 66.543, 245.255 23.661, 194.020 7.553 C 175.440 1.712, 148.261 -0.584, 129.500 2.103 M 92.500 12.320 C 72.614 20.833, 57.799 31.142, 42.500 47.113 C 23.925 66.503, 11.487 89.126, 5.484 114.440 C -10.004 179.748, 17.644 245.260, 75.125 279.452 C 82.440 283.803, 99.257 291.400, 103.263 292.164 C 104.928 292.481, 105.040 289.404, 105.263 237 L 105.500 181.500 119 181.500 L 132.500 181.500 132.758 240.127 L 133.016 298.754 138.758 299.290 C 141.916 299.585, 149.225 299.653, 155 299.441 C 209.126 297.450, 257.932 265.966, 282.373 217.275 C 284.368 213.301, 286 209.817, 286 209.532 C 286 209.247, 255.288 208.898, 217.750 208.757 L 149.500 208.500 149.500 195 L 149.500 181.500 184.806 181 L 220.112 180.500 178.806 152.054 C 156.088 136.409, 134.208 121.334, 130.183 118.554 L 122.867 113.500 155.475 113 L 188.082 112.500 146.041 77.521 L 104 42.543 104 25.271 C 104 15.772, 103.662 8.009, 103.250 8.020 C 102.838 8.030, 98 9.966, 92.500 12.320 M 80.667 64.667 C 80.300 65.033, 80 67.733, 80 70.667 L 80 76 73 76 L 66 76 66 83.500 L 66 91 73 91 L 80 91 80 84 L 80 77 86 77 L 92 77 92 70.500 L 92 64 86.667 64 C 83.733 64, 81.033 64.300, 80.667 64.667 M 27 100.448 L 27 106 32.552 106 L 38.105 106 37.802 100.750 L 37.500 95.500 32.250 95.198 L 27 94.895 27 100.448 M 54.218 126.750 L 54.500 138.500 66 138.500 L 77.500 138.500 77.782 126.750 L 78.063 115 66 115 L 53.937 115 54.218 126.750 M 42 165 L 42 174 51 174 L 60 174 60 165 L 60 156 51 156 L 42 156 42 165 M 80.432 159.318 C 80.154 160.042, 80.055 165.330, 80.213 171.068 L 80.500 181.500 92 181.500 L 103.500 181.500 103.782 169.750 L 104.063 158 92.500 158 C 83.856 158, 80.810 158.333, 80.432 159.318" stroke="none" fill="#841c34" fill-rule="evenodd"/></svg>