<?xml version="1.0" standalone="no"?>
<!DOCTYPE svg PUBLIC "-//W3C//DTD SVG 20010904//EN"
 "http://www.w3.org/TR/2001/REC-SVG-20010904/DTD/svg10.dtd">
<svg version="1.0" xmlns="http://www.w3.org/2000/svg"
 width="200.000000pt" height="200.000000pt" viewBox="0 0 200.000000 200.000000"
 preserveAspectRatio="xMidYMid meet">

<g transform="translate(0.000000,200.000000) scale(0.100000,-0.100000)"
fill="#000000" stroke="none">
<path d="M936 1747 c-121 -9 -201 -42 -259 -106 -12 -14 -29 -32 -37 -41 -8
-9 -16 -26 -17 -37 -2 -20 0 -21 30 -11 17 5 52 14 77 20 25 5 72 18 105 28
33 11 100 27 149 35 74 14 96 15 133 4 47 -13 68 -38 58 -69 -11 -35 -29 -39
-211 -54 -55 -5 -74 -17 -89 -57 -7 -19 -16 -42 -20 -51 -6 -15 -2 -18 18 -18
14 0 39 -11 54 -24 27 -24 28 -27 27 -128 0 -96 -10 -152 -36 -205 -14 -29
-70 -40 -106 -22 -15 7 -38 14 -52 14 -20 0 -28 9 -42 45 -9 25 -17 59 -17 75
-1 31 20 142 39 205 11 37 14 100 5 100 -4 0 -18 -6 -33 -14 -15 -7 -56 -14
-92 -15 -35 -2 -67 -4 -71 -7 -3 -2 -12 -25 -19 -51 -7 -27 -16 -52 -20 -58
-9 -12 -25 -77 -22 -89 2 -4 -5 -14 -15 -22 -15 -10 -16 -16 -6 -32 8 -13 8
-23 1 -30 -7 -7 -6 -17 3 -33 7 -13 12 -28 11 -33 -2 -4 2 -14 8 -20 5 -7 7
-16 3 -19 -3 -4 3 -15 13 -24 11 -10 26 -33 33 -50 8 -18 17 -33 22 -33 5 0 9
-6 9 -12 0 -21 80 -98 100 -98 10 0 52 -26 92 -58 86 -66 122 -85 200 -102 40
-9 61 -10 70 -2 14 11 138 13 138 2 0 -19 78 -19 135 1 48 16 66 29 92 65 18
24 39 60 47 79 8 19 20 35 26 35 6 0 10 8 8 18 -1 9 1 23 6 30 9 16 -49 82
-72 82 -26 0 -1 19 33 26 25 4 43 1 61 -11 26 -17 27 -16 50 8 17 18 26 45 34
106 16 118 1 197 -66 336 -42 88 -59 111 -151 207 -43 46 -111 78 -165 78 -10
0 -37 9 -61 19 -54 25 -89 28 -211 18z m392 -309 c7 -7 12 -20 12 -29 0 -25
16 -32 39 -17 40 25 71 -41 35 -76 -20 -21 -27 -20 -49 4 -24 27 -37 16 -33
-29 2 -23 12 -43 28 -58 l25 -21 -18 -48 c-15 -42 -16 -49 -2 -64 21 -23 19
-36 -10 -86 l-25 -42 39 -39 c74 -74 62 -152 -28 -182 -38 -12 -47 -11 -82 5
-38 17 -79 56 -79 76 0 5 14 15 31 22 26 11 28 14 15 26 -28 22 -20 57 18 75
18 9 38 27 45 41 16 35 14 37 -11 20 -30 -21 -45 -20 -57 3 -8 15 -5 26 19 56
28 35 29 38 13 61 -12 18 -13 30 -6 47 8 18 6 24 -11 32 -29 15 -29 59 1 63
15 2 24 -4 29 -20 4 -13 7 -27 6 -31 -1 -5 2 -6 8 -2 6 4 10 52 10 116 0 111
7 128 38 97z m-169 -132 c7 -8 14 -54 16 -103 3 -48 7 -138 10 -199 6 -115 -3
-164 -29 -164 -17 0 -66 60 -66 80 0 35 -11 -5 -21 -76 -6 -43 -14 -83 -19
-88 -25 -25 -25 119 0 394 12 124 23 166 40 155 6 -3 18 -1 27 4 24 14 29 13
42 -3z"/>
<path d="M1264 885 c-10 -8 -14 -14 -9 -14 6 0 19 6 29 14 11 8 15 15 10 15
-6 0 -19 -7 -30 -15z"/>
<path d="M1310 866 c0 -43 -20 -60 -60 -51 -17 4 -30 2 -30 -3 0 -25 75 -30
108 -6 24 17 30 62 10 82 -20 20 -28 14 -28 -22z"/>
<path d="M1122 1220 c0 -14 2 -19 5 -12 2 6 2 18 0 25 -3 6 -5 1 -5 -13z"/>
<path d="M1122 1105 c0 -16 2 -22 5 -12 2 9 2 23 0 30 -3 6 -5 -1 -5 -18z"/>
<path d="M1100 984 c-13 -34 -13 -39 6 -55 20 -17 34 2 34 49 0 40 -26 44 -40
6z"/>
<path d="M815 1308 c-27 -16 -44 -39 -45 -62 0 -14 5 -17 23 -11 12 4 32 6 43
6 16 0 21 5 19 22 -1 12 -3 30 -4 40 -1 20 -8 21 -36 5z"/>
<path d="M818 1153 c-19 -3 -28 -10 -28 -22 0 -23 38 -58 49 -45 11 12 23 74
13 73 -4 -1 -19 -4 -34 -6z"/>
<path d="M1344 445 c-4 -9 -2 -21 4 -27 15 -15 44 -1 40 19 -4 23 -36 29 -44
8z"/>
<path d="M1150 335 l0 -115 25 0 c22 0 24 4 27 58 3 50 6 57 26 60 21 3 22 0
22 -57 l0 -61 30 0 30 0 0 63 c0 85 -18 111 -71 104 -39 -5 -39 -5 -39 29 0
30 -3 34 -25 34 l-25 0 0 -115z"/>
<path d="M295 368 c33 -53 45 -83 45 -110 0 -34 3 -38 25 -38 23 0 25 4 25 43
0 32 10 57 40 105 22 34 40 65 40 67 0 3 -12 5 -27 5 -22 0 -34 -10 -54 -41
l-27 -42 -23 42 c-20 35 -29 41 -56 41 l-33 0 45 -72z"/>
<path d="M985 428 c-37 -20 -55 -51 -55 -99 0 -98 92 -146 178 -92 22 14 23
16 7 33 -15 17 -18 17 -45 2 -27 -16 -30 -16 -57 4 -69 52 -10 145 66 104 14
-7 23 -5 35 9 16 18 16 20 -6 35 -26 18 -93 21 -123 4z"/>
<path d="M460 320 c0 -58 4 -74 21 -91 14 -14 27 -19 42 -14 12 4 39 6 60 5
l37 -1 0 86 0 85 -30 0 c-30 0 -30 0 -30 -59 0 -63 -11 -81 -35 -61 -10 8 -15
31 -15 66 0 51 -1 54 -25 54 -24 0 -25 -2 -25 -70z"/>
<path d="M650 387 c-1 -1 -2 -39 -3 -85 l-2 -82 27 0 c26 0 27 2 30 58 3 49 6
57 23 57 17 0 20 -8 23 -57 3 -54 5 -58 27 -58 22 0 24 4 27 58 3 49 6 57 23
57 17 0 20 -8 23 -57 3 -54 5 -58 27 -58 24 0 25 2 25 69 0 50 -4 74 -16 85
-18 19 -65 21 -82 4 -8 -8 -15 -8 -24 -1 -10 8 -127 17 -128 10z"/>
<path d="M1340 305 c0 -84 0 -85 25 -85 25 0 25 1 25 85 0 84 0 85 -25 85 -25
0 -25 -1 -25 -85z"/>
<path d="M1420 304 c0 -82 0 -84 25 -84 22 0 24 4 27 58 3 50 6 57 26 60 21 3
22 0 22 -57 l0 -61 30 0 30 0 0 63 c0 91 -13 106 -95 105 l-65 0 0 -84z"/>
<path d="M1621 381 c-25 -16 -4 -41 33 -41 19 0 38 -4 41 -10 4 -6 -10 -10
-34 -10 -50 0 -77 -32 -62 -72 11 -31 32 -37 100 -30 l51 5 0 63 c0 51 -4 68
-20 84 -21 21 -83 27 -109 11z m79 -105 c0 -16 -27 -29 -41 -20 -19 11 -9 34
16 34 15 0 25 -6 25 -14z"/>
</g>
</svg>
