<?xml version="1.0" standalone="no"?>
<!DOCTYPE svg PUBLIC "-//W3C//DTD SVG 20010904//EN"
 "http://www.w3.org/TR/2001/REC-SVG-20010904/DTD/svg10.dtd">
<svg version="1.0" xmlns="http://www.w3.org/2000/svg"
 width="300.000000pt" height="300.000000pt" viewBox="0 0 300.000000 300.000000"
 preserveAspectRatio="xMidYMid meet">

<g transform="translate(0.000000,300.000000) scale(0.100000,-0.100000)"
fill="#000000" stroke="none">
<path d="M1280 2979 c-90 -14 -231 -51 -228 -59 3 -7 229 -198 1242 -1049
l328 -276 -252 -5 -251 -5 398 -268 c349 -234 398 -265 405 -248 3 11 17 66
30 123 20 90 23 129 23 308 -1 173 -4 221 -23 308 -113 521 -491 945 -992
1112 -146 48 -296 70 -473 69 -84 -1 -177 -5 -207 -10z"/>
<path d="M954 2891 c-102 -40 -236 -113 -328 -179 -95 -68 -253 -223 -316
-310 -155 -214 -254 -456 -289 -707 -15 -109 -6 -384 18 -496 88 -430 365
-807 744 -1013 74 -40 194 -92 255 -111 l22 -6 0 560 0 561 130 0 130 0 0
-585 c0 -548 1 -586 18 -593 9 -4 87 -7 172 -6 304 2 570 85 825 257 117 79
303 265 382 382 51 76 143 243 143 260 0 3 -306 5 -680 5 l-680 0 0 140 0 140
352 2 352 3 -450 309 c-247 170 -464 321 -483 335 l-34 26 323 5 323 5 -421
350 -422 350 0 173 c0 94 -3 172 -7 172 -5 -1 -40 -13 -79 -29z m-36 -598 l-3
-58 -55 0 -55 0 -3 58 -3 57 61 0 61 0 -3 -57z m-118 -128 l0 -75 -70 0 -70 0
0 75 0 75 70 0 70 0 0 -75z m-430 -170 l0 -55 -50 0 -50 0 0 55 0 55 50 0 50
0 0 -55z m410 -260 l0 -115 -120 0 -120 0 0 115 0 115 120 0 120 0 0 -115z
m-180 -385 l0 -91 -87 3 -88 3 -3 74 c-2 41 -1 80 2 88 4 9 28 13 91 13 l85 0
0 -90z m440 -45 l0 -115 -115 0 -115 0 0 115 0 115 115 0 115 0 0 -115z"/>
</g>
</svg>
