<svg xmlns="http://www.w3.org/2000/svg" xmlns:xlink="http://www.w3.org/1999/xlink" version="1.1" width="1000" height="1000" viewBox="0 0 1000 1000" xml:space="preserve">
<desc>Created with Fabric.js 3.5.0</desc>
<defs>
</defs>
<rect x="0" y="0" width="100%" height="100%" fill="#ffffff"/>
<g transform="matrix(0.1799 0 0 0.1799 134.7959 57.5679)" id="573114">
<g style="" vector-effect="non-scaling-stroke">
		<g transform="matrix(1 0 0 1 -14.4338 -25.7868)" id="path1948">
<linearGradient id="SVGID_10" gradientUnits="userSpaceOnUse" gradientTransform="matrix(0.5625 0 0 0.568 -14.9911 -11.7024)" x1="26.648937" y1="20.603781" x2="135.66525" y2="114.39767">
<stop offset="0%" style="stop-color:rgb(90,159,212);stop-opacity: 1"/>
<stop offset="100%" style="stop-color:rgb(48,105,152);stop-opacity: 1"/>
</linearGradient>
<path style="stroke: none; stroke-width: 1; stroke-dasharray: none; stroke-linecap: butt; stroke-dashoffset: 0; stroke-linejoin: miter; stroke-miterlimit: 4; is-custom-font: none; font-file-url: none; fill: url(#SVGID_10); fill-rule: nonzero; opacity: 1;" transform=" translate(-41.1469, -41.5473)" d="M 54.918785 0.00091927421 C 50.335132 0.02221727 45.957846 0.41313697 42.106285 1.0946693 C 30.760069 3.0991731 28.700036 7.2947714 28.700035 15.032169 v 10.21875 h 26.8125 v 3.40625 h -26.8125 h -10.0625 c -7.792459 0 -14.6157588 4.683717 -16.7499998 13.59375 c -2.46181998 10.212966 -2.57101508 16.586023 0 27.25 c 1.9059283 7.937852 6.4575432 13.593748 14.2499998 13.59375 h 9.21875 v -12.25 c 0 -8.849902 7.657144 -16.656248 16.75 -16.65625 h 26.78125 c 7.454951 0 13.406253 -6.138164 13.40625 -13.625 v -25.53125 c 0 -7.2663386 -6.12998 -12.7247771 -13.40625 -13.9374997 C 64.281548 0.32794397 59.502438 -0.02037903 54.918785 0.00091927421 Z m -14.5 8.21875012579 c 2.769547 0 5.03125 2.2986456 5.03125 5.1249996 c -0.000002 2.816336 -2.261703 5.09375 -5.03125 5.09375 c -2.779476 -0.000001 -5.03125 -2.277415 -5.03125 -5.09375 c -0.000001 -2.826353 2.251774 -5.1249996 5.03125 -5.1249996 z" stroke-linecap="round"/>
</g>
		<g transform="matrix(1 0 0 1 14.3501 3.189)" id="path1950">
<linearGradient id="SVGID_11" gradientUnits="userSpaceOnUse" gradientTransform="matrix(0.5625 0 0 0.568 -14.9911 -11.7024)" x1="150.96111" y1="192.35176" x2="112.03144" y2="137.27299">
<stop offset="0%" style="stop-color:rgb(255,212,59);stop-opacity: 1"/>
<stop offset="100%" style="stop-color:rgb(255,232,115);stop-opacity: 1"/>
</linearGradient>
<path style="stroke: none; stroke-width: 1; stroke-dasharray: none; stroke-linecap: butt; stroke-dashoffset: 0; stroke-linejoin: miter; stroke-miterlimit: 4; is-custom-font: none; font-file-url: none; fill: url(#SVGID_11); fill-rule: nonzero; opacity: 1;" transform=" translate(-69.9307, -70.5231)" d="m 85.637535 28.657169 v 11.90625 c 0 9.230755 -7.825895 16.999999 -16.75 17 h -26.78125 c -7.335833 0 -13.406249 6.278483 -13.40625 13.625 v 25.531247 c 0 7.266344 6.318588 11.540324 13.40625 13.625004 c 8.487331 2.49561 16.626237 2.94663 26.78125 0 c 6.750155 -1.95439 13.406253 -5.88761 13.40625 -13.625004 V 86.500919 h -26.78125 v -3.40625 h 26.78125 h 13.406254 c 7.792461 0 10.696251 -5.435408 13.406241 -13.59375 c 2.79933 -8.398886 2.68022 -16.475776 0 -27.25 c -1.92578 -7.757441 -5.60387 -13.59375 -13.406241 -13.59375 z m -15.0625 64.65625 c 2.779478 0.000003 5.03125 2.277417 5.03125 5.093747 c -0.000002 2.826354 -2.251775 5.125004 -5.03125 5.125004 c -2.76955 0 -5.03125 -2.29865 -5.03125 -5.125004 c 0.000002 -2.81633 2.261697 -5.093747 5.03125 -5.093747 z" stroke-linecap="round"/>
</g>
		<g transform="matrix(1 0 0 1 0.2361 60.3667)" id="path1894">
<radialGradient id="SVGID_12" gradientUnits="userSpaceOnUse" gradientTransform="matrix(0 -0.2399 1.0547 0 -139.5176 14.7612)" cx="61.518883" cy="132.28575" r="29.036913" fx="61.518883" fy="132.28575">
<stop offset="0%" style="stop-color:rgb(184,184,184);stop-opacity: 0.49803922"/>
<stop offset="100%" style="stop-color:rgb(127,127,127);stop-opacity: 0"/>
</radialGradient>
<ellipse style="stroke: none; stroke-width: 15.4174; stroke-dasharray: none; stroke-linecap: butt; stroke-dashoffset: 0; stroke-linejoin: miter; stroke-miterlimit: 4; is-custom-font: none; font-file-url: none; fill: url(#SVGID_12); fill-rule: nonzero; opacity: 0.4438;" cx="0" cy="0" rx="35.930977" ry="6.9673119"/>
</g>
</g>
</g>
</svg>